<svg width="364" height="334" viewBox="0 0 364 334" fill="none" xmlns="http://www.w3.org/2000/svg">
<path d="M1 397C1.905 396.131 17.29 381.523 19.1 379.627C20.91 377.73 35.39 360.746 37.2 359.064C39.01 357.381 53.49 346.111 55.3 345.979C57.11 345.847 71.59 356.45 73.4 356.426C75.21 356.401 89.69 346.696 91.5 345.48C93.31 344.264 107.79 334.358 109.6 332.096C111.41 329.833 125.89 302.535 127.7 300.235C129.51 297.935 143.99 286.433 145.8 286.099C147.61 285.766 162.09 294.608 163.9 293.572C165.71 292.536 180.19 267.165 182 265.377C183.81 263.589 198.29 258.57 200.1 257.81C201.91 257.05 216.39 254.062 218.2 250.172C220.01 246.282 234.49 187.214 236.3 180.01C238.11 172.807 252.59 103.556 254.4 106.102C256.21 108.646 270.69 225.195 272.5 230.908C274.31 236.622 288.79 222.748 290.6 220.377C292.41 218.006 306.89 185.213 308.7 183.477C310.51 181.74 324.99 194.644 326.8 185.648C328.61 176.652 343.09 12.2701 344.9 3.56263C346.71 -5.14512 362.095 11.099 363 11.4956" stroke="#0A6B25" stroke-opacity="0.42"/>
</svg>
