<svg height="auto" viewBox="0 0 600 600" xmlns="http://www.w3.org/2000/svg"><path d="M0 594.16c8-6.323 24-17.71 40-31.61 16-13.902 24-32.806 40-37.896 16-5.091 24 13.76 40 12.44 16-1.32 24-2.457 40-19.04s24-35.951 40-63.874c16-27.922 24-55.618 40-75.738 16-20.12 24-31.719 40-24.862 16 6.857 24 77.129 40 59.147 16-17.982 24-130.814 40-149.055 16-18.24 24 62.856 40 57.851 16-5.005 24-87.325 40-82.877 16 4.448 24 88.18 40 105.116 16 16.934 24 13.79 40-20.442s24-108.34 40-150.718c16-42.379 32-48.94 40-61.176V600H0Z" fill="#b5e9bb1a"/><path d="M0 594.16c8-6.323 24-17.71 40-31.61 16-13.902 24-32.806 40-37.896 16-5.091 24 13.76 40 12.44 16-1.32 24-2.457 40-19.04s24-35.951 40-63.874c16-27.922 24-55.618 40-75.738 16-20.12 24-31.719 40-24.862 16 6.857 24 77.129 40 59.147 16-17.982 24-130.814 40-149.055 16-18.24 24 62.856 40 57.851 16-5.005 24-87.325 40-82.877 16 4.448 24 88.18 40 105.116 16 16.934 24 13.79 40-20.442s24-108.34 40-150.718c16-42.379 32-48.94 40-61.176" fill="none" stroke="#b5e9bb" stroke-width="1"/></svg>