<svg width="209" height="24" viewBox="0 0 209 24" fill="none" xmlns="http://www.w3.org/2000/svg">
<path fill-rule="evenodd" clip-rule="evenodd" d="M2 1C2 0.447715 1.55228 0 1 0C0.447715 0 0 0.447715 0 1V19C0 19.5523 0.447715 20 1 20H19.1642C19.7165 20 20.1642 19.5523 20.1642 19C20.1642 18.4477 19.7165 18 19.1642 18H2V1ZM17.8498 7.71031C18.2421 7.32156 18.245 6.6884 17.8562 6.29611C17.4675 5.90382 16.8343 5.90094 16.442 6.28969L12.1003 10.5922L8.76773 7.28969C8.37796 6.90344 7.74973 6.90344 7.35996 7.28969L4.33259 10.2897C3.9403 10.6784 3.93743 11.3116 4.32617 11.7039C4.71492 12.0962 5.34808 12.0991 5.74037 11.7103L8.06384 9.40784L11.3964 12.7103C11.7862 13.0966 12.4144 13.0966 12.8042 12.7103L17.8498 7.71031Z" fill="url(#paint0_linear_16_2)"/>
<path d="M24.3692 6.83203V4.78125H35.5509V6.83203H31.2833V19H28.6466V6.83203H24.3692ZM36.6353 19V4.13672H39.1841V10.2012C39.4966 9.75195 39.9133 9.38737 40.4341 9.10742C40.9549 8.82747 41.5767 8.6875 42.2993 8.6875C43.2498 8.6875 44.0311 8.98372 44.6431 9.57617C45.2616 10.1686 45.5708 11.1387 45.5708 12.4863V19H43.022V12.6426C43.022 11.9329 42.8625 11.4284 42.5435 11.1289C42.231 10.8294 41.8013 10.6797 41.2544 10.6797C40.7726 10.6797 40.3527 10.8132 39.9946 11.0801C39.6431 11.347 39.3729 11.7116 39.1841 12.1738V19H36.6353ZM47.0849 14.0977V13.7852C47.0849 12.2357 47.5373 10.9857 48.4423 10.0352C49.3538 9.07812 50.5354 8.59961 51.9872 8.59961C53.4456 8.59961 54.5784 9.04557 55.3857 9.9375C56.1995 10.8294 56.6064 12.0566 56.6064 13.6191V14.5273H48.7255V12.8867H54.0868V12.6816C54.0868 12.0697 53.9078 11.5521 53.5497 11.1289C53.1982 10.6992 52.6838 10.4844 52.0067 10.4844C51.219 10.4844 50.6233 10.7773 50.2196 11.3633C49.8225 11.9492 49.6239 12.7142 49.6239 13.6582V14.1855C49.6239 15.1361 49.8388 15.9043 50.2685 16.4902C50.6982 17.0762 51.3394 17.3691 52.1923 17.3691C52.7652 17.3691 53.2567 17.2357 53.6669 16.9688C54.0836 16.7018 54.4189 16.3893 54.6728 16.0312L56.4696 17.1641C56.1506 17.75 55.6233 18.2513 54.8876 18.668C54.1584 19.0781 53.273 19.2832 52.2314 19.2832C50.6038 19.2832 49.3375 18.8079 48.4325 17.8574C47.5341 16.9069 47.0849 15.6536 47.0849 14.0977ZM62.1833 12.3301V11.4512C62.1833 9.17904 62.753 7.45378 63.8923 6.27539C65.0316 5.09701 66.4997 4.50781 68.2966 4.50781C70.0284 4.50781 71.3923 4.9668 72.3884 5.88477C73.391 6.79622 73.8923 7.96484 73.8923 9.39062V9.6543H71.2653V9.3418C71.2653 8.47591 71.0179 7.79557 70.5232 7.30078C70.0349 6.79948 69.2894 6.54883 68.2868 6.54883C67.2712 6.54883 66.4509 6.91667 65.8259 7.65234C65.2009 8.38802 64.8884 9.56315 64.8884 11.1777V12.6035C64.8884 14.1139 65.1976 15.263 65.8161 16.0508C66.4346 16.8385 67.2679 17.2324 68.3161 17.2324C69.2666 17.2324 69.9795 16.9753 70.4548 16.4609C70.9366 15.9466 71.2035 15.263 71.2556 14.4102L71.2653 14.1367H73.8923L73.8825 14.4297C73.8109 15.8229 73.2966 16.9785 72.3396 17.8965C71.3825 18.8145 70.0349 19.2734 68.2966 19.2734C66.4802 19.2734 65.0056 18.681 63.8728 17.4961C62.7465 16.3047 62.1833 14.5827 62.1833 12.3301ZM75.2794 15.2305V8.89258H77.8185V15.25C77.8185 15.9792 77.9715 16.4902 78.2775 16.7832C78.59 17.0762 79.0164 17.2227 79.5567 17.2227C80.0385 17.2227 80.465 17.0859 80.836 16.8125C81.2071 16.5391 81.4903 16.194 81.6857 15.7773V8.89258H84.2345V19H81.8321L81.7638 17.7793H81.715C81.4025 18.2155 80.9825 18.5638 80.4552 18.8242C79.9278 19.0781 79.3386 19.2051 78.6876 19.2051C77.672 19.2051 76.8484 18.8991 76.2169 18.2871C75.5919 17.6751 75.2794 16.6562 75.2794 15.2305ZM86.3735 19V8.89258H88.7954L88.854 10.084H88.9028C89.1307 9.68685 89.4367 9.34505 89.8208 9.05859C90.2114 8.76562 90.6574 8.61914 91.1587 8.61914C91.3019 8.61914 91.4452 8.63542 91.5884 8.66797C91.7381 8.70052 91.8455 8.72982 91.9107 8.75586V10.9434C91.787 10.9173 91.6567 10.8978 91.52 10.8848C91.3833 10.8652 91.2336 10.8555 91.0708 10.8555C90.5825 10.8555 90.1496 10.9954 89.772 11.2754C89.3944 11.5553 89.1144 11.9069 88.9321 12.3301V19H86.3735ZM93.0634 19V8.89258H95.4853L95.5439 10.084H95.5927C95.8205 9.68685 96.1265 9.34505 96.5107 9.05859C96.9013 8.76562 97.3472 8.61914 97.8485 8.61914C97.9918 8.61914 98.135 8.63542 98.2782 8.66797C98.428 8.70052 98.5354 8.72982 98.6005 8.75586V10.9434C98.4768 10.9173 98.3466 10.8978 98.2099 10.8848C98.0732 10.8652 97.9234 10.8555 97.7607 10.8555C97.2724 10.8555 96.8394 10.9954 96.4618 11.2754C96.0842 11.5553 95.8043 11.9069 95.622 12.3301V19H93.0634ZM99.0013 14.0977V13.7852C99.0013 12.2357 99.4538 10.9857 100.359 10.0352C101.27 9.07812 102.452 8.59961 103.904 8.59961C105.362 8.59961 106.495 9.04557 107.302 9.9375C108.116 10.8294 108.523 12.0566 108.523 13.6191V14.5273H100.642V12.8867H106.003V12.6816C106.003 12.0697 105.824 11.5521 105.466 11.1289C105.115 10.6992 104.6 10.4844 103.923 10.4844C103.135 10.4844 102.54 10.7773 102.136 11.3633C101.739 11.9492 101.54 12.7142 101.54 13.6582V14.1855C101.54 15.1361 101.755 15.9043 102.185 16.4902C102.615 17.0762 103.256 17.3691 104.109 17.3691C104.682 17.3691 105.173 17.2357 105.583 16.9688C106 16.7018 106.335 16.3893 106.589 16.0312L108.386 17.1641C108.067 17.75 107.54 18.2513 106.804 18.668C106.075 19.0781 105.189 19.2832 104.148 19.2832C102.52 19.2832 101.254 18.8079 100.349 17.8574C99.4505 16.9069 99.0013 15.6536 99.0013 14.0977ZM109.998 19V8.89258H112.41L112.468 10.1133H112.517C112.81 9.68359 113.217 9.33854 113.738 9.07812C114.265 8.81771 114.855 8.6875 115.506 8.6875C116.534 8.6875 117.364 8.98047 117.996 9.56641C118.634 10.1458 118.953 11.1484 118.953 12.5742V19H116.414V12.5742C116.414 11.8841 116.261 11.3958 115.955 11.1094C115.655 10.8229 115.229 10.6797 114.675 10.6797C114.213 10.6797 113.793 10.8099 113.416 11.0703C113.038 11.3307 112.748 11.6823 112.547 12.125V19H109.998ZM120.447 14.0977V13.7852C120.447 12.2096 120.9 10.9531 121.805 10.0156C122.71 9.07161 123.924 8.59961 125.447 8.59961C126.886 8.59961 127.983 8.96419 128.738 9.69336C129.5 10.416 129.897 11.2786 129.93 12.2812L129.94 12.4277H127.459V12.3203C127.459 11.8125 127.293 11.3861 126.961 11.041C126.636 10.696 126.128 10.5234 125.438 10.5234C124.643 10.5234 124.044 10.8132 123.641 11.3926C123.244 11.972 123.045 12.7337 123.045 13.6777V14.1953C123.045 15.1393 123.24 15.9043 123.631 16.4902C124.022 17.0697 124.624 17.3594 125.438 17.3594C126.16 17.3594 126.678 17.1803 126.99 16.8223C127.309 16.4642 127.469 16.041 127.469 15.5527V15.4551H129.94V15.5723C129.933 16.5684 129.542 17.4375 128.768 18.1797C127.999 18.9154 126.893 19.2832 125.447 19.2832C123.924 19.2832 122.71 18.8145 121.805 17.877C120.9 16.9329 120.447 15.6732 120.447 14.0977ZM130.77 23.0527L130.799 21.1387C130.962 21.1908 131.144 21.2298 131.346 21.2559C131.555 21.2884 131.753 21.3047 131.942 21.3047C132.385 21.3112 132.772 21.1582 133.104 20.8457C133.436 20.5332 133.742 19.9082 134.022 18.9707L133.963 18.9609L130.077 8.89258H132.625L134.793 15.0254C134.878 15.2663 134.946 15.4909 134.999 15.6992C135.051 15.901 135.099 16.1029 135.145 16.3047H135.204C135.256 16.1029 135.308 15.901 135.36 15.6992C135.418 15.4909 135.487 15.263 135.565 15.0156L137.655 8.89258H139.969L135.829 20.1816C135.451 21.2038 134.963 21.972 134.364 22.4863C133.771 23.0007 133.036 23.2578 132.157 23.2578C131.857 23.2578 131.597 23.2415 131.375 23.209C131.161 23.1764 130.959 23.1243 130.77 23.0527ZM143.779 6.83203V4.78125H154.96V6.83203H150.693V19H148.056V6.83203H143.779ZM154.912 19V8.89258H157.334L157.392 10.084H157.441C157.669 9.68685 157.975 9.34505 158.359 9.05859C158.75 8.76562 159.196 8.61914 159.697 8.61914C159.84 8.61914 159.983 8.63542 160.127 8.66797C160.276 8.70052 160.384 8.72982 160.449 8.75586V10.9434C160.325 10.9173 160.195 10.8978 160.058 10.8848C159.922 10.8652 159.772 10.8555 159.609 10.8555C159.121 10.8555 158.688 10.9954 158.31 11.2754C157.933 11.5553 157.653 11.9069 157.47 12.3301V19H154.912ZM160.713 16.0312C160.713 14.9505 161.133 14.127 161.973 13.5605C162.819 12.9876 163.893 12.6979 165.195 12.6914H167.315V12.0664C167.315 11.5586 167.184 11.1517 166.924 10.8457C166.664 10.5332 166.211 10.377 165.567 10.377C164.922 10.377 164.46 10.5072 164.18 10.7676C163.9 11.0215 163.76 11.334 163.76 11.7051V11.8418L161.27 11.832V11.6953C161.27 10.8229 161.673 10.0905 162.481 9.49805C163.288 8.9056 164.352 8.60938 165.674 8.60938C166.996 8.60938 168.024 8.89258 168.76 9.45898C169.496 10.0254 169.863 10.901 169.863 12.0859V16.7051C169.863 17.1152 169.899 17.5091 169.971 17.8867C170.042 18.2578 170.14 18.5768 170.264 18.8438V19H167.774C167.689 18.8438 167.614 18.6419 167.549 18.3945C167.484 18.1471 167.438 17.903 167.412 17.6621C167.204 18.0592 166.823 18.4141 166.27 18.7266C165.716 19.0326 165.023 19.1855 164.19 19.1855C163.2 19.1855 162.373 18.9219 161.709 18.3945C161.045 17.8607 160.713 17.0729 160.713 16.0312ZM163.252 15.8359C163.252 16.3242 163.392 16.7116 163.672 16.998C163.958 17.2845 164.401 17.4277 165 17.4277C165.632 17.4277 166.175 17.2194 166.631 16.8027C167.087 16.3861 167.315 15.9108 167.315 15.377V14.2637H165.586C164.805 14.2637 164.219 14.4004 163.828 14.6738C163.444 14.9473 163.252 15.3346 163.252 15.8359ZM171.465 14.0977V13.7852C171.465 12.2096 171.918 10.9531 172.823 10.0156C173.728 9.07161 174.942 8.59961 176.465 8.59961C177.904 8.59961 179.001 8.96419 179.756 9.69336C180.518 10.416 180.915 11.2786 180.948 12.2812L180.958 12.4277H178.477V12.3203C178.477 11.8125 178.311 11.3861 177.979 11.041C177.653 10.696 177.146 10.5234 176.456 10.5234C175.661 10.5234 175.062 10.8132 174.659 11.3926C174.262 11.972 174.063 12.7337 174.063 13.6777V14.1953C174.063 15.1393 174.258 15.9043 174.649 16.4902C175.04 17.0697 175.642 17.3594 176.456 17.3594C177.178 17.3594 177.696 17.1803 178.008 16.8223C178.327 16.4642 178.487 16.041 178.487 15.5527V15.4551H180.958V15.5723C180.951 16.5684 180.56 17.4375 179.786 18.1797C179.017 18.9154 177.911 19.2832 176.465 19.2832C174.942 19.2832 173.728 18.8145 172.823 17.877C171.918 16.9329 171.465 15.6732 171.465 14.0977ZM182.345 19V4.13672H184.893V12.8281L188.536 8.88281H191.378L184.893 15.7773V19H182.345ZM188.829 19L185.206 14.0879L186.817 12.3008L191.817 19H188.829ZM191.661 14.0977V13.7852C191.661 12.2357 192.114 10.9857 193.019 10.0352C193.93 9.07812 195.112 8.59961 196.564 8.59961C198.022 8.59961 199.155 9.04557 199.962 9.9375C200.776 10.8294 201.183 12.0566 201.183 13.6191V14.5273H193.302V12.8867H198.663V12.6816C198.663 12.0697 198.484 11.5521 198.126 11.1289C197.775 10.6992 197.26 10.4844 196.583 10.4844C195.796 10.4844 195.2 10.7773 194.796 11.3633C194.399 11.9492 194.201 12.7142 194.201 13.6582V14.1855C194.201 15.1361 194.415 15.9043 194.845 16.4902C195.275 17.0762 195.916 17.3691 196.769 17.3691C197.342 17.3691 197.833 17.2357 198.243 16.9688C198.66 16.7018 198.995 16.3893 199.249 16.0312L201.046 17.1641C200.727 17.75 200.2 18.2513 199.464 18.668C198.735 19.0781 197.85 19.2832 196.808 19.2832C195.18 19.2832 193.914 18.8079 193.009 17.8574C192.111 16.9069 191.661 15.6536 191.661 14.0977ZM202.658 19V8.89258H205.08L205.138 10.084H205.187C205.415 9.68685 205.721 9.34505 206.105 9.05859C206.496 8.76562 206.942 8.61914 207.443 8.61914C207.586 8.61914 207.73 8.63542 207.873 8.66797C208.022 8.70052 208.13 8.72982 208.195 8.75586V10.9434C208.071 10.9173 207.941 10.8978 207.804 10.8848C207.668 10.8652 207.518 10.8555 207.355 10.8555C206.867 10.8555 206.434 10.9954 206.056 11.2754C205.679 11.5553 205.399 11.9069 205.217 12.3301V19H202.658Z" fill="url(#paint1_linear_16_2)"/>
<defs>
<linearGradient id="paint0_linear_16_2" x1="26.2134" y1="1.79619e-07" x2="0.15966" y2="20.2059" gradientUnits="userSpaceOnUse">
<stop stop-color="#006BA8"/>
<stop offset="1" stop-color="#00AF12"/>
</linearGradient>
<linearGradient id="paint1_linear_16_2" x1="209.164" y1="11.5" x2="24.1642" y2="11.5" gradientUnits="userSpaceOnUse">
<stop stop-color="#049412"/>
<stop offset="0.92419" stop-color="#126CBF"/>
</linearGradient>
</defs>
</svg>
